Roadies X - 10 - Journey - 8  Full Episode - April 13 2013 [DADA RRG]

Roadies.X.10.Journey.8 .Full.Episode.April.13.2013.RRG.DADA.DBBians.Com.flv
 


-: Screens :-

 
http://desibbrg.org/images/16271139465628498947.jpg


-: INFo :-


General
Format : Flash Video File size : 245 MiB Duration : 49mn 5s Overall bit rate mode : Variable Overall bit rate : 697 Kbps Writing application : Lavf53.6.0 Video Format : Sorenson Spark Codec ID : 2 Duration : 49mn 5s Bit rate : 781 Kbps Width : 515 pixels Height : 386 pixels Display aspect ratio : 4:3 Frame rate mode : Constant Frame rate : 25.000 fps Bit depth : 8 bits Bits/(Pixel*Frame) : 0.157 Stream size : 274 MiB Audio Format : MPEG Audio Format version : Version 2 Format profile : Layer 3 Mode : Joint stereo Mode extension : MS Stereo Codec ID : 2 Codec ID/Hint : MP3 Duration : 49mn 5s Bit rate mode : Variable Bit rate : 96.0 Kbps Channel(s) : 2 channels Sampling rate : 22.05 KHz Compression mode : Lossy Stream size : 33.7 MiB (14%) 

